<svg width="96.00005951035858" height="96.00005951035858" xmlns="http://www.w3.org/2000/svg">
 <title/>

 <g>
  <title>background</title>
  <rect height="402" width="582" y="-1" x="-1" fill="none" id="canvas_background"/>
 </g>
 <g>
  <title>Layer 1</title>
  <path d="m48.4035,0.672476a24.0275,24.0275 0 0 0 -24,24.000025a6,6 0 0 0 12,0a12,12 0 0 1 24,0c0,5.2031 -3.058601,8.3965 -8.085899,13.037098c-4.652401,4.282902 -9.914101,9.1348 -9.914101,16.962902a6,6 0 0 0 12,0c0,-2.443401 2.296902,-4.6875 6.046902,-8.144501c5.039001,-4.652401 11.953102,-11.0215 11.953102,-21.855499a24.0275,24.0275 0 0 0 -24.000004,-24.000025z" fill="#fcfcf9" id="svg_2"/>
  <path d="m48,72a12,12 0 1 0 12,12a12.0119,12.0119 0 0 0 -12,-12z" fill="#fcfcf9" id="svg_3"/>
 </g>
</svg>